<svg width="24" height="24" viewBox="0 0 24 24" fill="none" xmlns="http://www.w3.org/2000/svg">
<path d="M9.88032 14.1198L9.73032 13.9998L9.55032 13.8998L9.37032 13.8498C9.20967 13.8177 9.04357 13.8255 8.88664 13.8725C8.7297 13.9196 8.58674 14.0045 8.47032 14.1198C8.3714 14.2104 8.29591 14.3237 8.25032 14.4498C8.19742 14.5695 8.17009 14.699 8.17009 14.8298C8.17009 14.9607 8.19742 15.0901 8.25032 15.2098C8.35778 15.4501 8.55003 15.6424 8.79032 15.7498C8.91055 15.8011 9.03965 15.8283 9.17032 15.8298C9.30413 15.8273 9.43634 15.8002 9.56032 15.7498C9.6822 15.7015 9.7916 15.6263 9.88032 15.5298C9.97386 15.4386 10.0486 15.3299 10.1003 15.2098C10.1481 15.0889 10.1719 14.9598 10.1703 14.8298C10.1737 14.6987 10.1463 14.5685 10.0903 14.4498C10.0445 14.3262 9.97293 14.2137 9.88032 14.1198ZM3.51032 8.75984C3.64263 8.75929 3.77351 8.73249 3.89539 8.68099C4.01726 8.62949 4.12771 8.55432 4.22032 8.45984L8.46032 4.21984C8.64658 4.03247 8.75112 3.77902 8.75112 3.51484C8.75112 3.25065 8.64658 2.9972 8.46032 2.80984C8.27296 2.62358 8.01951 2.51904 7.75532 2.51904C7.49114 2.51904 7.23769 2.62358 7.05032 2.80984L2.81032 7.04984C2.62407 7.2372 2.51953 7.49065 2.51953 7.75484C2.51953 8.01902 2.62407 8.27247 2.81032 8.45984C2.99495 8.64825 3.24655 8.75608 3.51032 8.75984ZM21.1903 15.5398C21.003 15.3536 20.7495 15.249 20.4853 15.249C20.2211 15.249 19.9677 15.3536 19.7803 15.5398L15.5403 19.7798C15.3999 19.9191 15.3039 20.0969 15.2645 20.2907C15.2252 20.4845 15.2441 20.6857 15.3191 20.8687C15.394 21.0517 15.5215 21.2084 15.6855 21.319C15.8495 21.4296 16.0426 21.489 16.2403 21.4898C16.3726 21.4893 16.5035 21.4625 16.6254 21.411C16.7473 21.3595 16.8577 21.2843 16.9503 21.1898L21.1903 16.9998C21.2902 16.9063 21.3699 16.7932 21.4243 16.6677C21.4788 16.5421 21.5069 16.4067 21.5069 16.2698C21.5069 16.133 21.4788 15.9976 21.4243 15.872C21.3699 15.7464 21.2902 15.6334 21.1903 15.5398ZM21.3603 9.87984C21.3623 9.08589 21.0494 8.32354 20.4903 7.75984L16.2403 3.50984C15.668 2.96683 14.9092 2.66411 14.1203 2.66411C13.3314 2.66411 12.5726 2.96683 12.0003 3.50984L3.51032 11.9998C2.94852 12.5623 2.63296 13.3248 2.63296 14.1198C2.63296 14.9148 2.94852 15.6773 3.51032 16.2398L7.76032 20.4898C8.32283 21.0516 9.08532 21.3672 9.88032 21.3672C10.6753 21.3672 11.4378 21.0516 12.0003 20.4898L20.4903 11.9998C21.0494 11.4361 21.3623 10.6738 21.3603 9.87984ZM19.0703 10.5898L10.5903 19.0698C10.4974 19.1636 10.3868 19.238 10.2649 19.2887C10.143 19.3395 10.0123 19.3656 9.88032 19.3656C9.74831 19.3656 9.61761 19.3395 9.49575 19.2887C9.37389 19.238 9.26329 19.1636 9.17032 19.0698L4.93032 14.8298C4.8366 14.7369 4.7622 14.6263 4.71143 14.5044C4.66066 14.3826 4.63453 14.2518 4.63453 14.1198C4.63453 13.9878 4.66066 13.8571 4.71143 13.7353C4.7622 13.6134 4.8366 13.5028 4.93032 13.4098L13.4103 4.92984C13.5033 4.83611 13.6139 4.76171 13.7357 4.71094C13.8576 4.66018 13.9883 4.63404 14.1203 4.63404C14.2523 4.63404 14.383 4.66018 14.5049 4.71094C14.6268 4.76171 14.7374 4.83611 14.8303 4.92984L19.0703 9.16984C19.1641 9.2628 19.2384 9.3734 19.2892 9.49526C19.34 9.61712 19.3661 9.74782 19.3661 9.87984C19.3661 10.0118 19.34 10.1426 19.2892 10.2644C19.2384 10.3863 19.1641 10.4969 19.0703 10.5898Z" fill="#45B36B"/>
</svg>
