<svg width="94" height="12" viewBox="0 0 94 12" fill="#ffffff" xmlns="http://www.w3.org/2000/svg">
<path d="M5.1409e-07 10.92V0.210001H8.43C9.5 0.210001 10.33 0.445001 10.92 0.915001C11.52 1.375 11.82 2.02 11.82 2.85C11.82 3.39 11.69 3.855 11.43 4.245C11.17 4.635 10.79 4.935 10.29 5.145C9.8 5.345 9.2 5.455 8.49 5.475L8.835 5.385C9.535 5.385 10.14 5.49 10.65 5.7C11.16 5.91 11.55 6.215 11.82 6.615C12.1 7.005 12.24 7.47 12.24 8.01C12.24 8.62 12.09 9.145 11.79 9.585C11.49 10.015 11.055 10.345 10.485 10.575C9.915 10.805 9.225 10.92 8.415 10.92H5.1409e-07ZM3.33 8.445H7.935C8.105 8.445 8.255 8.41 8.385 8.34C8.515 8.26 8.615 8.155 8.685 8.025C8.755 7.885 8.79 7.725 8.79 7.545C8.79 7.355 8.75 7.19 8.67 7.05C8.6 6.91 8.5 6.8 8.37 6.72C8.24 6.64 8.09 6.6 7.92 6.6H3.33V8.445ZM3.33 4.365H7.62C7.79 4.365 7.935 4.33 8.055 4.26C8.185 4.19 8.285 4.095 8.355 3.975C8.425 3.845 8.46 3.695 8.46 3.525C8.46 3.275 8.385 3.075 8.235 2.925C8.085 2.765 7.885 2.685 7.635 2.685H3.33V4.365ZM16.7959 10.92V6.96L11.8009 0.210001H15.6409L19.4509 5.64H17.7709L21.5659 0.210001H25.0759L20.1109 6.96V10.92H16.7959ZM30.6946 11.13C29.8746 11.13 29.0946 11 28.3546 10.74C27.6246 10.48 26.9696 10.11 26.3896 9.63C25.8196 9.15 25.3696 8.565 25.0396 7.875C24.7096 7.185 24.5446 6.415 24.5446 5.565C24.5446 4.995 24.6146 4.465 24.7546 3.975C24.9046 3.475 25.1196 3.02 25.3996 2.61C25.6896 2.19 26.0396 1.82 26.4496 1.5C26.8596 1.18 27.3246 0.910002 27.8446 0.690001C28.3746 0.460001 28.9496 0.290001 29.5696 0.180002C30.1996 0.0600014 30.8746 1.3113e-06 31.5946 1.3113e-06C32.5546 1.3113e-06 33.4196 0.0900013 34.1896 0.270001C34.9696 0.450001 35.6446 0.705001 36.2146 1.035C36.7946 1.365 37.2546 1.76 37.5946 2.22C37.9446 2.67 38.1596 3.175 38.2396 3.735H34.6996C34.5896 3.535 34.4046 3.34 34.1446 3.15C33.8846 2.96 33.5446 2.805 33.1246 2.685C32.7046 2.565 32.1896 2.505 31.5796 2.505C31.2196 2.505 30.8796 2.535 30.5596 2.595C30.2496 2.655 29.9596 2.745 29.6896 2.865C29.4296 2.985 29.1946 3.135 28.9846 3.315C28.7746 3.495 28.5946 3.7 28.4446 3.93C28.3046 4.15 28.1946 4.4 28.1146 4.68C28.0446 4.95 28.0096 5.245 28.0096 5.565C28.0096 6.205 28.1546 6.755 28.4446 7.215C28.7446 7.665 29.1596 8.015 29.6896 8.265C30.2296 8.505 30.8596 8.625 31.5796 8.625C32.0396 8.625 32.4746 8.575 32.8846 8.475C33.3046 8.375 33.6746 8.215 33.9946 7.995C34.3146 7.775 34.5746 7.49 34.7746 7.14C34.9846 6.78 35.1096 6.35 35.1496 5.85L35.9746 7.245H31.9096V5.1H38.2696V10.92H35.1046V8.415L35.4496 8.85C35.1396 9.38 34.7446 9.815 34.2646 10.155C33.7946 10.485 33.2546 10.73 32.6446 10.89C32.0446 11.05 31.3946 11.13 30.6946 11.13ZM45.5481 11.13C44.7281 11.13 43.9481 11 43.2081 10.74C42.4781 10.48 41.8231 10.11 41.2431 9.63C40.6731 9.15 40.2231 8.565 39.8931 7.875C39.5631 7.185 39.3981 6.415 39.3981 5.565C39.3981 4.995 39.4681 4.465 39.6081 3.975C39.7581 3.475 39.9731 3.02 40.2531 2.61C40.5431 2.19 40.8931 1.82 41.3031 1.5C41.7131 1.18 42.1781 0.910002 42.6981 0.690001C43.2281 0.460001 43.8031 0.290001 44.4231 0.180002C45.0531 0.0600014 45.7281 1.3113e-06 46.4481 1.3113e-06C47.4081 1.3113e-06 48.2731 0.0900013 49.0431 0.270001C49.8231 0.450001 50.4981 0.705001 51.0681 1.035C51.6481 1.365 52.1081 1.76 52.4481 2.22C52.7981 2.67 53.0131 3.175 53.0931 3.735H49.5531C49.4431 3.535 49.2581 3.34 48.9981 3.15C48.7381 2.96 48.3981 2.805 47.9781 2.685C47.5581 2.565 47.0431 2.505 46.4331 2.505C46.0731 2.505 45.7331 2.535 45.4131 2.595C45.1031 2.655 44.8131 2.745 44.5431 2.865C44.2831 2.985 44.0481 3.135 43.8381 3.315C43.6281 3.495 43.4481 3.7 43.2981 3.93C43.1581 4.15 43.0481 4.4 42.9681 4.68C42.8981 4.95 42.8631 5.245 42.8631 5.565C42.8631 6.205 43.0081 6.755 43.2981 7.215C43.5981 7.665 44.0131 8.015 44.5431 8.265C45.0831 8.505 45.7131 8.625 46.4331 8.625C46.8931 8.625 47.3281 8.575 47.7381 8.475C48.1581 8.375 48.5281 8.215 48.8481 7.995C49.1681 7.775 49.4281 7.49 49.6281 7.14C49.8381 6.78 49.9631 6.35 50.0031 5.85L50.8281 7.245H46.7631V5.1H53.1231V10.92H49.9581V8.415L50.3031 8.85C49.9931 9.38 49.5981 9.815 49.1181 10.155C48.6481 10.485 48.1081 10.73 47.4981 10.89C46.8981 11.05 46.2481 11.13 45.5481 11.13ZM54.8066 10.92V0.210001H65.6666V2.715H58.1366V4.365H65.0816V6.75H58.1366V8.415H65.6666V10.92H54.8066ZM66.5256 10.92L72.2706 4.605L71.8806 6.015L66.7656 0.210001H70.9506L74.6556 4.62L72.4956 4.56L76.3656 0.210001H80.1006L74.7006 6.06L74.8206 4.71L80.2956 10.92H76.1106L72.1806 6.21L74.4756 6.12L70.2606 10.92H66.5256ZM81.3936 10.92V0.210001H88.8186C89.4986 0.210001 90.1036 0.295001 90.6336 0.465002C91.1636 0.635002 91.6136 0.880002 91.9836 1.2C92.3536 1.52 92.6336 1.91 92.8236 2.37C93.0236 2.83 93.1236 3.35 93.1236 3.93C93.1236 4.51 93.0236 5.03 92.8236 5.49C92.6336 5.95 92.3536 6.345 91.9836 6.675C91.6136 6.995 91.1636 7.24 90.6336 7.41C90.1036 7.58 89.4986 7.665 88.8186 7.665H84.7236V10.92H81.3936ZM84.7236 5.13H88.5186C88.7386 5.13 88.9336 5.085 89.1036 4.995C89.2836 4.895 89.4236 4.755 89.5236 4.575C89.6236 4.395 89.6736 4.18 89.6736 3.93C89.6736 3.55 89.5636 3.255 89.3436 3.045C89.1236 2.825 88.8486 2.715 88.5186 2.715H84.7236V5.13Z" fill="white"></path>
</svg>