<svg xmlns="http://www.w3.org/2000/svg" width="192" height="218" fill="none"><path fill="url(#a)" d="M89.175 100.48c25.12 0 44.32 4.32 57.6 12.96 13.28 8.64 19.92 21.12 19.92 37.44 0 17.6-7.36 31.04-22.08 40.32-14.72 9.12-34.56 13.68-59.52 13.68-22.24 0-40.48-4.16-54.72-12.48-14.08-8.48-22.16-20.96-24.24-37.44l21.6-1.2c1.76 10.88 7.76 19.04 18 24.48 10.4 5.28 23.52 7.92 39.36 7.92 17.44 0 31.6-3.12 42.48-9.36 10.88-6.24 16.32-14.88 16.32-25.92 0-10.24-4.88-18.4-14.64-24.48-9.76-6.24-23.92-9.36-42.48-9.36-11.36 0-22.72.96-34.08 2.88v-15.84l75.36-51.36H16.215V34h144.48v17.04l-75.36 49.68c.8-.16 2.08-.24 3.84-.24Z"></path><defs><linearGradient id="a" x1="88.5" x2="88.5" y1="-70" y2="282" gradientUnits="userSpaceOnUse"><stop offset=".351" stop-color="#2394FF"></stop><stop offset=".505" stop-color="#043E73"></stop><stop offset=".76" stop-color="#000509" stop-opacity="0"></stop></linearGradient></defs></svg>