<svg xmlns="http://www.w3.org/2000/svg" width="192" height="218" fill="none"><path fill="url(#a)" d="M39.608 183.28h120.48V202H4.568v-17.04l98.88-69.6c8.8-5.92 15.76-11.76 20.88-17.52 5.12-5.92 7.68-12.72 7.68-20.4 0-9.12-4.24-16-12.72-20.64-8.32-4.64-19.2-6.96-32.64-6.96-33.6 0-52.08 13.44-55.44 40.32l-21.36-1.44c1.76-19.36 9.52-33.76 23.28-43.2 13.76-9.6 31.68-14.4 53.76-14.4 20.48 0 36.88 3.92 49.2 11.76 12.48 7.84 18.72 19.04 18.72 33.6 0 9.92-3.2 18.96-9.6 27.12-6.4 8-16 16.16-28.8 24.48l-76.8 55.2Z"></path><defs><linearGradient id="a" x1="84.5" x2="84.5" y1="-70" y2="282" gradientUnits="userSpaceOnUse"><stop offset=".351" stop-color="#2394FF"></stop><stop offset=".505" stop-color="#043E73"></stop><stop offset=".76" stop-color="#000509" stop-opacity="0"></stop></linearGradient></defs></svg>